{"glyphs":{":":{"x_min":0,"x_max":173,"ha":173,"o":"m 139 370 l 35 370 l 35 481 l 139 480 z m 139 0 l 35 0 l 35 111 l 139 110 z"},"$":{"x_min":0,"x_max":377,"ha":377,"o":"m 353 449 l 253 449 q 253 525 222 544 l 222 370 q 276 360 314 319 q 352 278 352 224 l 352 162 q 352 106 316 64 q 279 21 223 13 l 223 -51 l 168 -51 l 168 12 q 108 15 67 58 q 26 102 26 162 l 26 205 l 126 205 q 125 123 168 105 l 168 282 q 111 289 69 331 q 27 373 27 430 l 27 492 q 27 551 68 594 q 108 638 167 642 l 167 719 l 222 718 l 222 641 q 278 634 316 592 q 353 549 353 492 z m 167 378 l 167 551 q 127 542 127 467 q 127 395 167 378 z m 252 187 q 252 247 223 270 l 223 107 q 252 122 252 187 z"},"?":{"x_min":0,"x_max":371,"ha":371,"o":"m 344 334 q 344 283 296 242 q 248 200 196 200 l 142 200 l 142 300 q 204 300 220 312 q 240 327 244 392 q 244 394 244 482 q 244 522 234 541 q 220 566 183 566 q 140 566 126 527 q 118 505 118 452 l 18 452 l 18 505 q 18 567 62 611 q 106 655 168 655 l 194 655 q 256 655 300 611 q 344 567 344 505 z m 239 0 l 135 0 l 135 109 l 239 109 z"},"<":{"x_min":0,"x_max":385,"ha":385,"o":"m 351 28 l 31 183 l 32 290 l 351 441 l 351 337 l 131 236 l 351 132 z"},"'":{"x_min":0,"x_max":168,"ha":168,"o":"m 131 378 l 37 378 l 36 650 l 130 649 z"},"=":{"x_min":0,"x_max":428,"ha":428,"o":"m 412 303 l 19 303 l 19 395 l 412 395 z m 412 113 l 19 113 l 19 205 l 412 205 z"},"a":{"x_min":0,"x_max":395,"ha":395,"o":"m 365 0 l 265 0 l 265 34 q 263 -10 179 -10 q 121 -10 73 28 q 22 69 22 125 q 22 161 42 198 q 62 234 91 256 q 126 282 184 282 q 234 282 265 268 l 265 295 q 265 379 200 379 q 172 379 158 364 q 148 353 138 322 l 39 322 q 39 384 83 428 q 127 472 189 472 l 215 472 q 277 472 321 428 q 365 384 365 322 z m 265 139 q 265 166 244 185 q 222 204 195 204 q 168 204 142 182 q 117 161 117 135 q 117 109 144 92 q 168 76 195 76 q 222 76 244 94 q 265 113 265 139 z"},"L":{"x_min":0,"x_max":320,"ha":320,"o":"m 319 93 l 318 0 l 15 0 l 16 649 l 118 649 l 119 94 z"},"3":{"x_min":0,"x_max":386,"ha":386,"o":"m 352 141 q 352 79 308 35 q 264 -9 202 -9 l 176 -9 q 114 -9 70 35 q 26 79 26 141 l 26 194 l 126 194 q 126 142 134 119 q 148 80 191 80 q 229 80 243 106 q 253 125 253 166 q 253 243 238 261 q 222 279 148 279 l 147 378 q 211 378 227 388 q 251 403 251 463 q 251 547 190 547 q 147 547 133 508 q 125 485 125 433 l 25 433 l 25 486 q 25 548 69 592 q 113 636 175 636 l 201 636 q 263 636 307 592 q 351 548 351 486 l 351 434 q 351 405 332 372 q 312 339 286 329 q 313 312 332 282 q 352 253 352 223 z"},";":{"x_min":0,"x_max":188,"ha":188,"o":"m 172 370 l 68 370 l 68 481 l 172 480 z m 172 110 l 92 -150 l 18 -150 l 58 111 z"},"J":{"x_min":0,"x_max":392,"ha":392,"o":"m 356 140 q 356 78 312 34 q 268 -10 206 -10 l 180 -10 q 118 -10 74 34 q 30 78 30 140 l 30 254 l 130 254 l 130 167 q 130 83 191 83 q 256 83 256 167 l 256 644 l 356 644 z"},"V":{"x_min":0,"x_max":369,"ha":369,"o":"m 352 649 l 237 -1 l 130 0 l 19 649 l 123 649 l 184 209 l 248 649 z"},"\"":{"x_min":0,"x_max":318,"ha":318,"o":"m 281 378 l 187 378 l 186 650 l 280 649 z m 131 378 l 37 378 l 36 650 l 130 649 z"},"7":{"x_min":0,"x_max":349,"ha":349,"o":"m 330 537 l 129 0 l 16 0 l 219 527 l 25 527 l 24 620 l 329 620 z"},"S":{"x_min":0,"x_max":373,"ha":373,"o":"m 352 469 l 252 469 q 252 517 243 539 q 228 573 187 573 q 126 573 126 487 q 126 431 134 407 q 149 363 191 363 q 254 363 302 320 q 351 276 351 214 l 351 132 q 351 70 307 26 q 263 -18 201 -18 l 175 -18 q 113 -18 69 26 q 25 70 25 132 l 25 175 l 125 175 q 124 71 190 71 q 228 71 242 99 q 251 118 251 161 q 251 271 188 271 q 124 271 75 314 q 26 357 26 420 l 26 512 q 26 574 70 618 q 114 662 176 662 l 202 662 q 264 662 308 618 q 352 574 352 512 z"},"}":{"x_min":0,"x_max":313,"ha":313,"o":"m 297 281 l 183 165 l 183 0 q 183 -62 131 -108 q 79 -154 17 -154 l 18 -57 q 83 -58 83 27 l 83 164 l 195 281 l 83 394 l 83 489 q 83 575 22 573 l 23 662 q 85 662 134 618 q 183 574 183 512 l 183 394 l 185 394 z"},"Z":{"x_min":0,"x_max":349,"ha":349,"o":"m 326 0 l 21 0 l 20 83 l 224 567 l 21 567 l 20 650 l 325 650 l 326 567 l 123 83 l 325 83 z"},"x":{"x_min":0,"x_max":381,"ha":381,"o":"m 360 479 l 257 229 l 356 0 l 252 0 l 191 170 l 127 0 l 23 0 l 125 230 l 27 479 l 131 479 l 192 299 l 256 479 z"},")":{"x_min":0,"x_max":228,"ha":228,"o":"m 198 0 q 198 -63 146 -108 q 95 -154 32 -154 l 33 -57 q 98 -58 98 27 l 98 489 q 98 575 37 573 l 38 662 q 101 662 150 618 q 198 574 198 512 z"},"&":{"x_min":0,"x_max":440,"ha":440,"o":"m 421 369 l 420 290 l 349 290 q 350 141 350 141 q 350 79 306 35 q 262 -9 200 -9 l 174 -9 q 112 -9 68 35 q 24 79 24 141 l 24 223 q 24 252 45 284 q 64 312 91 329 q 65 340 45 372 q 25 405 25 434 l 25 486 q 25 548 69 592 q 113 636 175 636 l 201 636 q 263 636 307 592 q 351 548 351 486 l 351 433 l 251 433 q 251 487 244 508 q 230 547 186 547 q 125 547 125 463 q 125 408 142 389 q 158 370 211 368 q 252 366 316 367 q 407 369 421 369 z m 249 178 l 249 289 q 164 289 144 270 q 124 251 124 166 q 124 80 185 80 q 226 80 240 111 q 249 131 249 178 z"},"_":{"x_min":0,"x_max":566,"ha":566,"o":"m 523 -80 l 20 -80 l 20 2 l 523 2 z"},"v":{"x_min":0,"x_max":375,"ha":375,"o":"m 355 479 l 240 -1 l 133 0 l 22 479 l 126 479 l 187 139 l 251 479 z"},"O":{"x_min":0,"x_max":384,"ha":384,"o":"m 356 140 q 356 78 312 34 q 268 -10 206 -10 l 180 -10 q 118 -10 74 34 q 30 78 30 140 l 30 512 q 30 574 74 618 q 118 662 180 662 l 206 662 q 268 662 312 618 q 356 574 356 512 z m 256 167 l 256 489 q 256 528 248 546 q 235 573 201 573 q 130 573 130 489 l 130 167 q 130 83 195 83 q 256 83 256 167 z"},"(":{"x_min":0,"x_max":207,"ha":207,"o":"m 190 -154 q 127 -154 76 -108 q 24 -62 24 0 l 24 512 q 24 574 72 618 q 121 662 184 662 l 185 573 q 124 575 124 489 l 124 27 q 124 -58 189 -57 z"},"C":{"x_min":0,"x_max":371,"ha":371,"o":"m 350 140 q 350 78 306 34 q 262 -10 200 -10 l 174 -10 q 112 -10 68 34 q 24 78 24 140 l 24 512 q 24 574 68 618 q 112 662 174 662 l 200 662 q 262 662 306 618 q 350 574 350 512 l 350 409 l 250 409 q 250 418 251 438 q 252 459 252 469 q 252 573 185 573 q 124 573 124 489 l 124 167 q 124 83 189 83 q 250 83 250 167 l 250 254 l 350 254 z"},"W":{"x_min":0,"x_max":599,"ha":599,"o":"m 583 649 l 468 -1 l 361 0 l 300 356 l 237 -1 l 130 0 l 19 649 l 123 649 l 184 209 l 248 649 l 354 649 l 415 209 l 479 649 z"},"A":{"x_min":0,"x_max":379,"ha":379,"o":"m 354 0 l 250 0 l 226 148 l 150 148 l 125 0 l 21 0 l 136 650 l 243 649 z m 210 252 l 189 410 l 168 252 z"},"f":{"x_min":0,"x_max":274,"ha":274,"o":"m 247 369 l 174 369 l 174 0 l 76 0 l 75 368 l 25 368 l 26 457 l 75 457 l 75 512 q 75 575 130 621 q 183 664 247 664 l 246 566 q 174 568 174 457 l 247 457 z"},"Q":{"x_min":0,"x_max":418,"ha":418,"o":"m 398 53 l 325 -21 l 283 19 q 244 -10 169 -10 q 107 -10 63 34 q 19 78 19 140 l 19 512 q 19 574 63 618 q 107 662 169 662 l 195 662 q 257 662 301 618 q 345 574 345 512 l 345 140 q 345 123 342 107 z m 245 203 l 245 495 q 245 573 190 573 q 119 573 119 489 l 119 167 q 119 83 184 83 q 202 83 214 88 l 146 155 l 220 228 z"},"w":{"x_min":0,"x_max":604,"ha":604,"o":"m 583 479 l 468 -1 l 361 0 l 301 263 l 237 -1 l 130 0 l 19 479 l 123 479 l 184 159 l 248 479 l 352 479 l 415 159 l 479 479 z"},"-":{"x_min":0,"x_max":212,"ha":212,"o":"m 182 213 l 29 213 l 29 305 l 182 305 z"},"E":{"x_min":0,"x_max":343,"ha":343,"o":"m 325 93 l 324 0 l 21 0 l 20 649 l 324 650 l 323 557 l 126 557 l 125 381 l 324 382 l 323 289 l 124 289 l 125 94 z"},"s":{"x_min":0,"x_max":365,"ha":365,"o":"m 349 137 q 349 75 305 31 q 261 -13 199 -13 l 173 -13 q 116 -13 74 24 q 32 61 24 117 l 129 117 q 143 76 188 76 q 212 76 230 92 q 249 109 249 132 q 249 186 174 186 q 110 186 67 222 q 21 260 21 322 q 21 384 65 428 q 109 472 171 472 l 197 472 q 254 472 296 434 q 339 397 346 341 l 241 341 q 228 383 182 383 q 157 383 139 368 q 121 352 121 327 q 121 273 196 273 q 260 273 303 238 q 349 200 349 137 z"},">":{"x_min":0,"x_max":361,"ha":361,"o":"m 340 183 l 20 28 l 20 132 l 240 236 l 20 337 l 20 441 l 339 290 z"},"l":{"x_min":0,"x_max":173,"ha":173,"o":"m 141 649 l 140 0 l 36 0 l 37 650 z"},"8":{"x_min":0,"x_max":390,"ha":390,"o":"m 356 438 q 356 371 294 334 q 321 320 338 292 q 354 263 354 232 l 354 140 q 354 78 310 34 q 266 -10 204 -10 l 178 -10 q 116 -10 72 34 q 28 78 28 140 l 28 232 q 28 259 47 290 q 66 322 90 336 q 30 377 30 490 q 30 552 74 596 q 118 640 180 640 l 206 640 q 268 640 312 596 q 356 552 356 490 z m 256 467 q 256 551 191 551 q 130 551 130 465 q 130 382 182 382 l 200 382 q 228 382 243 412 q 256 437 256 467 z m 254 167 l 254 209 q 254 289 182 289 q 160 289 143 259 q 128 233 128 209 l 128 167 q 128 83 193 83 q 254 83 254 167 z"},"\\":{"x_min":0,"x_max":307,"ha":307,"o":"m 316 -68 l 222 -68 l -1 649 l 92 650 z"},"e":{"x_min":0,"x_max":375,"ha":375,"o":"m 349 140 q 349 78 305 34 q 261 -10 199 -10 l 173 -10 q 111 -10 67 34 q 23 78 23 140 l 23 322 q 23 384 67 428 q 111 472 173 472 l 199 472 q 261 472 305 428 q 349 384 349 322 l 349 184 l 123 184 l 123 167 q 123 120 144 101 q 165 82 213 82 q 240 82 250 140 z m 249 267 l 249 299 q 249 383 184 383 q 123 383 123 299 l 123 268 z"},"b":{"x_min":0,"x_max":378,"ha":378,"o":"m 354 140 q 354 70 306 30 q 259 -10 188 -10 q 172 -10 151 2 q 130 15 122 29 l 122 0 l 26 0 l 25 648 l 129 649 l 128 444 q 150 472 204 472 q 266 472 310 428 q 354 384 354 322 z m 254 167 l 254 299 q 254 383 189 383 q 130 383 130 326 l 130 142 q 130 117 149 100 q 168 83 193 83 q 254 83 254 167 z"},"%":{"x_min":0,"x_max":577,"ha":577,"o":"m 247 428 q 247 377 214 350 q 180 324 128 324 q 85 324 55 354 q 25 385 25 428 l 25 548 q 25 600 60 627 q 92 652 145 652 q 188 652 218 622 q 247 591 247 548 z m 173 446 l 173 533 q 173 584 135 584 q 100 584 100 533 l 100 446 q 100 395 138 395 q 173 395 173 446 z m 556 104 q 556 53 522 26 q 488 0 436 0 q 394 0 364 31 q 334 62 334 104 l 334 225 q 334 275 368 302 q 402 329 453 329 q 495 329 526 298 q 556 267 556 225 z m 481 122 l 481 209 q 481 260 443 260 q 408 260 408 209 l 408 122 q 408 71 446 71 q 481 71 481 122 z m 499 649 l 153 0 l 69 0 l 416 650 z"},"m":{"x_min":0,"x_max":612,"ha":612,"o":"m 583 332 l 582 0 l 484 0 l 483 309 q 483 393 418 393 q 391 393 372 374 q 353 354 353 327 l 352 0 l 253 0 l 252 327 q 252 355 234 374 q 216 393 188 393 q 129 393 129 336 l 130 0 l 25 0 l 24 480 l 128 479 l 127 454 q 150 482 213 482 q 237 482 269 462 q 301 443 311 422 q 328 444 362 463 q 396 482 422 482 q 485 482 534 438 q 583 395 583 332 z"},"#":{"x_min":0,"x_max":708,"ha":708,"o":"m 692 495 l 691 401 l 536 401 l 490 253 l 630 253 l 629 159 l 460 159 l 411 0 l 317 0 l 366 159 l 210 158 l 161 0 l 67 0 l 116 158 l 10 158 l 10 252 l 145 252 l 191 400 l 72 400 l 72 494 l 221 494 l 269 650 l 363 649 l 315 494 l 471 495 l 519 650 l 613 649 l 565 495 z m 442 401 l 285 400 l 239 252 l 395 253 z"},",":{"x_min":0,"x_max":213,"ha":213,"o":"m 180 110 l 100 -150 l 26 -150 l 66 111 z"},"n":{"x_min":0,"x_max":385,"ha":385,"o":"m 355 332 l 354 0 l 256 0 l 255 309 q 255 393 190 393 q 131 393 131 336 l 132 0 l 27 0 l 26 480 l 130 479 l 129 454 q 152 482 215 482 q 277 482 316 438 q 355 395 355 332 z"},"h":{"x_min":0,"x_max":380,"ha":380,"o":"m 355 322 l 354 0 l 256 0 l 255 299 q 255 383 190 383 q 130 383 130 326 l 132 0 l 27 0 l 26 650 l 130 649 l 129 444 q 151 472 215 472 q 276 472 316 428 q 355 384 355 322 z"},"z":{"x_min":0,"x_max":370,"ha":370,"o":"m 337 0 l 32 0 l 31 83 l 225 397 l 32 397 l 31 480 l 336 480 l 337 397 l 144 83 l 336 83 z"},"B":{"x_min":0,"x_max":383,"ha":383,"o":"m 355 140 q 355 78 320 39 q 285 0 224 0 l 28 0 l 28 651 l 205 652 q 267 652 311 608 q 355 564 355 502 l 355 420 q 355 393 339 362 q 322 328 300 318 q 323 307 339 278 q 355 249 355 222 z m 255 447 l 255 479 q 255 528 243 544 q 227 564 177 564 l 129 564 l 129 362 q 177 361 179 361 q 225 361 241 382 q 255 399 255 447 z m 255 167 l 255 206 q 255 280 220 280 l 129 280 l 129 84 q 194 83 194 83 q 231 83 245 108 q 255 127 255 167 z"},"K":{"x_min":0,"x_max":377,"ha":377,"o":"m 361 0 l 247 0 l 119 190 l 119 0 l 15 0 l 15 649 l 119 649 l 119 461 l 246 649 l 360 649 l 132 326 z"},"R":{"x_min":0,"x_max":392,"ha":392,"o":"m 359 0 l 258 0 l 259 159 q 259 217 219 234 q 196 243 128 243 l 129 0 l 25 0 l 25 651 l 202 652 q 264 652 308 608 q 352 564 352 502 l 352 390 q 352 360 334 326 q 315 292 289 281 q 317 268 337 241 q 359 211 359 182 z m 252 417 l 252 479 q 252 528 237 546 q 222 564 173 564 l 128 564 l 128 334 q 191 333 191 333 q 252 333 252 417 z"},"T":{"x_min":0,"x_max":346,"ha":346,"o":"m 328 567 l 226 567 l 227 0 l 123 0 l 122 567 l 23 567 l 22 650 l 327 650 z"},"P":{"x_min":0,"x_max":378,"ha":378,"o":"m 350 340 q 350 277 316 238 q 281 200 219 200 l 127 200 l 127 0 l 23 0 l 23 661 l 200 662 q 262 662 306 618 q 350 574 350 512 z m 250 367 l 250 489 q 250 538 238 554 q 222 574 172 574 l 126 574 l 127 284 q 189 283 189 283 q 226 283 240 308 q 250 326 250 367 z"},"|":{"x_min":0,"x_max":166,"ha":166,"o":"m 124 -160 l 40 -160 l 39 650 l 123 649 z"},"t":{"x_min":0,"x_max":279,"ha":279,"o":"m 246 -14 q 74 -14 74 88 l 74 373 l 25 373 l 24 462 l 75 462 l 73 550 l 173 550 l 174 461 l 246 461 l 246 373 l 174 373 l 174 111 q 174 83 198 76 q 209 73 245 74 z"},"M":{"x_min":0,"x_max":559,"ha":559,"o":"m 521 0 l 417 0 l 417 331 l 327 0 l 223 0 l 141 338 l 141 0 l 37 0 l 37 649 l 148 649 l 281 188 l 407 649 l 521 649 z"},"g":{"x_min":0,"x_max":397,"ha":397,"o":"m 364 -36 q 364 -99 308 -144 q 256 -188 192 -188 q 129 -188 78 -134 q 28 -81 28 -17 l 132 -15 q 131 -97 199 -97 q 264 -97 264 -13 q 264 -3 260 22 q 238 -6 184 -6 q 122 -6 78 38 q 34 82 34 144 l 34 326 q 34 396 83 437 q 129 476 200 476 q 216 476 237 464 q 258 451 266 437 l 266 466 l 363 465 z m 261 190 q 261 201 261 224 q 260 247 260 259 q 260 324 255 341 q 243 383 195 383 q 134 383 134 299 l 134 167 q 134 83 199 83 q 239 83 253 119 q 261 142 261 190 z"},"j":{"x_min":0,"x_max":235,"ha":235,"o":"m 202 539 l 98 539 l 97 650 l 201 649 z m 203 -39 q 203 -102 149 -146 q 95 -191 31 -191 l 32 -93 q 103 -94 103 -16 l 104 473 l 202 473 z"},"i":{"x_min":0,"x_max":169,"ha":169,"o":"m 137 539 l 33 539 l 32 650 l 136 649 z m 137 0 l 33 0 l 33 480 l 137 480 z"},"y":{"x_min":0,"x_max":375,"ha":375,"o":"m 355 479 l 197 -200 l 110 -199 l 151 0 l 22 479 l 126 479 l 196 155 l 251 479 z"},"@":{"x_min":0,"x_max":592,"ha":592,"o":"m 575 281 q 575 205 535 144 q 489 75 417 75 q 384 75 364 91 q 341 109 341 141 q 323 127 291 127 q 253 127 220 154 q 186 181 186 218 q 186 262 218 292 q 250 323 294 323 q 321 323 341 317 l 341 326 q 341 375 305 375 q 277 375 269 339 l 197 339 q 197 390 231 418 q 262 444 314 444 q 355 444 380 415 q 405 386 405 344 l 405 139 q 405 133 412 124 q 419 116 425 116 q 471 116 501 178 q 527 230 527 281 q 527 378 460 444 q 394 511 297 511 q 201 511 134 444 q 68 377 68 281 q 68 183 136 117 q 203 51 302 51 l 302 4 q 184 4 102 84 q 20 163 20 281 q 20 397 100 478 q 181 558 297 558 q 414 558 494 478 q 575 398 575 281 z m 341 227 q 341 242 329 253 q 317 264 302 264 q 286 264 272 252 q 257 240 257 224 q 257 209 273 200 q 286 192 302 192 q 317 192 329 202 q 341 212 341 227 z"},".":{"x_min":0,"x_max":188,"ha":188,"o":"m 147 0 l 43 0 l 43 111 l 147 110 z"},"p":{"x_min":0,"x_max":386,"ha":386,"o":"m 357 144 q 357 82 313 38 q 269 -6 207 -6 l 181 -6 q 153 -6 131 22 l 132 -183 l 28 -184 l 28 465 l 125 466 l 125 437 q 145 476 207 476 q 269 476 313 432 q 357 388 357 326 z m 257 167 l 257 299 q 257 383 196 383 q 152 383 138 350 q 130 331 130 280 q 130 271 131 217 q 133 135 134 131 q 144 83 192 83 q 257 83 257 167 z"},"X":{"x_min":0,"x_max":365,"ha":365,"o":"m 349 649 l 237 319 l 347 -1 l 240 0 l 185 163 l 130 0 l 22 -1 l 132 319 l 21 649 l 125 649 l 185 473 l 245 649 z"},"*":{"x_min":0,"x_max":388,"ha":388,"o":"m 361 571 l 266 491 l 359 413 l 300 342 l 239 393 l 239 322 l 147 322 l 147 392 l 90 344 l 31 414 l 122 491 l 29 569 l 89 639 l 147 590 l 147 675 l 239 675 l 239 589 l 302 641 z"},"Y":{"x_min":0,"x_max":364,"ha":364,"o":"m 354 649 l 236 194 q 233 182 233 143 q 233 119 234 71 q 236 23 236 0 l 132 0 l 131 150 q 131 170 131 192 l 21 649 l 125 649 l 186 359 l 250 649 z"},"c":{"x_min":0,"x_max":364,"ha":364,"o":"m 348 140 q 348 78 304 34 q 260 -10 198 -10 l 172 -10 q 110 -10 66 34 q 22 78 22 140 l 22 322 q 22 384 66 428 q 110 472 172 472 l 198 472 q 260 472 304 428 q 348 384 348 322 l 348 269 l 248 269 q 248 322 240 344 q 226 383 183 383 q 122 383 122 299 l 122 167 q 122 83 187 83 q 231 83 243 120 q 248 137 248 194 l 348 194 z"},"!":{"x_min":0,"x_max":173,"ha":173,"o":"m 138 198 l 34 198 l 34 650 l 138 649 z m 139 0 l 35 0 l 34 109 l 138 109 z"},"/":{"x_min":0,"x_max":340,"ha":340,"o":"m 325 649 l 101 -68 l 7 -68 l 231 650 z"},"[":{"x_min":0,"x_max":255,"ha":255,"o":"m 239 -149 l 20 -150 l 19 650 l 239 649 l 238 555 l 114 554 l 114 -56 l 238 -57 z"},"6":{"x_min":0,"x_max":385,"ha":385,"o":"m 354 450 l 254 450 l 254 455 q 255 543 189 543 q 128 543 128 459 q 128 459 129 384 q 147 402 186 402 q 257 402 304 362 q 352 322 352 252 l 352 140 q 352 78 308 34 q 264 -10 202 -10 l 176 -10 q 114 -10 70 34 q 26 78 26 140 l 28 482 q 28 544 72 588 q 116 632 178 632 l 204 632 q 266 632 310 588 q 354 544 354 482 z m 252 167 l 252 229 q 252 313 187 313 q 124 313 129 251 l 127 251 q 126 241 126 229 l 126 167 q 126 83 191 83 q 252 83 252 167 z"},"r":{"x_min":0,"x_max":307,"ha":307,"o":"m 310 425 l 228 359 q 213 393 172 393 q 113 393 113 336 l 114 0 l 9 0 l 8 480 l 112 479 l 111 454 q 134 482 197 482 q 269 482 310 425 z"},"2":{"x_min":0,"x_max":362,"ha":362,"o":"m 345 481 q 345 429 313 378 l 129 83 l 333 83 l 334 0 l 19 0 l 18 63 q 18 71 18 71 l 18 83 l 19 83 l 224 410 q 249 450 249 481 q 249 505 233 524 q 217 543 193 543 q 126 543 126 436 q 126 424 127 405 q 128 386 128 379 l 28 379 l 28 482 q 28 544 72 588 q 116 632 178 632 l 204 632 q 261 632 303 586 q 345 539 345 481 z"},"{":{"x_min":0,"x_max":314,"ha":314,"o":"m 296 -154 q 234 -154 182 -108 q 130 -62 130 0 l 130 165 l 16 281 l 128 394 l 130 394 l 130 512 q 130 574 179 618 q 228 662 290 662 l 291 573 q 230 575 230 489 l 230 394 l 118 281 l 230 164 l 230 27 q 230 -58 295 -57 z"},"9":{"x_min":0,"x_max":390,"ha":390,"o":"m 356 488 l 354 146 q 354 84 310 40 q 266 -4 204 -4 l 178 -4 q 116 -4 72 40 q 28 84 28 146 l 28 178 l 128 178 q 127 85 193 85 q 254 85 254 169 l 254 244 q 235 226 196 226 q 125 226 79 265 q 30 306 30 376 l 30 488 q 30 550 74 594 q 118 638 180 638 l 206 638 q 268 638 312 594 q 356 550 356 488 z m 256 466 q 256 545 191 545 q 130 545 130 461 l 130 399 q 130 315 195 315 q 242 315 253 370 q 256 386 256 466 z"}," ":{"x_min":0,"x_max":192,"ha":192,"o":""},"I":{"x_min":0,"x_max":177,"ha":177,"o":"m 140 0 l 36 0 l 35 650 l 139 649 z"},"H":{"x_min":0,"x_max":375,"ha":375,"o":"m 338 0 l 232 0 l 232 280 l 136 280 l 137 0 l 31 0 l 32 649 l 136 649 l 136 372 l 232 373 l 233 649 l 337 649 z"},"4":{"x_min":0,"x_max":398,"ha":398,"o":"m 379 243 l 378 159 l 335 160 l 335 0 l 240 0 l 241 160 l 21 160 l 20 243 l 246 622 l 356 622 l 133 243 l 241 243 l 241 350 l 335 349 l 335 243 z"},"~":{"x_min":0,"x_max":567,"ha":567,"o":"m 541 353 q 509 268 487 232 q 442 160 387 160 q 345 160 305 192 q 294 200 246 250 q 215 282 196 282 q 165 282 139 237 q 136 231 106 165 l 16 165 q 39 241 78 292 q 130 357 196 357 q 236 357 275 325 q 277 324 333 267 q 364 235 387 235 q 416 235 458 353 z"},"D":{"x_min":0,"x_max":384,"ha":384,"o":"m 355 140 q 355 77 320 38 q 286 0 224 0 l 28 0 l 28 651 l 205 652 q 267 652 311 608 q 355 564 355 502 z m 255 167 l 255 479 q 255 527 243 544 q 227 564 178 564 l 129 564 l 129 84 q 194 83 194 83 q 231 83 245 108 q 255 126 255 167 z"},"^":{"x_min":0,"x_max":452,"ha":452,"o":"m 430 329 l 326 329 l 225 549 l 121 329 l 17 329 l 172 649 l 279 648 z"},"0":{"x_min":0,"x_max":390,"ha":390,"o":"m 356 140 q 356 78 312 34 q 268 -10 206 -10 l 180 -10 q 118 -10 74 34 q 30 78 30 140 l 30 482 q 30 544 74 588 q 118 632 180 632 l 206 632 q 268 632 312 588 q 356 544 356 482 z m 256 167 l 256 459 q 256 498 248 516 q 235 543 201 543 q 130 543 130 459 l 130 167 q 130 83 195 83 q 256 83 256 167 z"},"F":{"x_min":0,"x_max":333,"ha":333,"o":"m 323 382 l 322 289 l 123 289 l 123 0 l 20 0 l 19 649 l 323 650 l 322 557 l 125 557 l 124 381 z"},"`":{"x_min":0,"x_max":108,"ha":108,"o":"m 116 707 l 32 707 l -137 839 l -13 840 z"},"k":{"x_min":0,"x_max":360,"ha":360,"o":"m 347 0 l 219 0 l 124 140 l 125 0 l 20 0 l 19 650 l 123 649 l 124 356 l 219 477 l 347 477 l 159 254 z"},"u":{"x_min":0,"x_max":392,"ha":392,"o":"m 358 -1 l 254 0 l 255 25 q 232 -3 169 -3 q 107 -3 68 40 q 29 84 29 147 l 30 479 l 128 479 l 129 170 q 129 86 194 86 q 253 86 253 143 l 252 479 l 357 479 z"},"]":{"x_min":0,"x_max":291,"ha":291,"o":"m 249 648 l 248 -150 l 29 -149 l 30 -57 l 154 -56 l 155 554 l 30 555 l 29 649 l 249 650 z"},"U":{"x_min":0,"x_max":392,"ha":392,"o":"m 356 140 q 356 78 312 34 q 268 -10 206 -10 l 180 -10 q 118 -10 74 34 q 30 78 30 140 l 29 656 l 130 656 l 130 167 q 130 83 195 83 q 256 83 256 167 l 256 656 l 355 656 z"},"o":{"x_min":0,"x_max":373,"ha":373,"o":"m 350 140 q 350 78 306 34 q 262 -10 200 -10 l 174 -10 q 112 -10 68 34 q 24 78 24 140 l 24 322 q 24 384 68 428 q 112 472 174 472 l 200 472 q 262 472 306 428 q 350 384 350 322 z m 250 167 l 250 299 q 250 383 185 383 q 124 383 124 299 l 124 167 q 124 83 189 83 q 250 83 250 167 z"},"N":{"x_min":0,"x_max":377,"ha":377,"o":"m 340 0 l 234 0 l 128 354 l 129 0 l 33 0 l 30 649 l 134 649 l 244 283 l 245 649 l 339 649 z"},"+":{"x_min":0,"x_max":431,"ha":431,"o":"m 410 213 l 259 213 l 259 67 l 167 67 l 167 213 l 17 213 l 17 305 l 167 305 l 167 460 l 259 460 l 259 305 l 410 305 z"},"G":{"x_min":0,"x_max":372,"ha":372,"o":"m 352 276 l 351 140 q 351 78 307 34 q 263 -10 201 -10 l 175 -10 q 113 -10 69 34 q 25 78 25 140 l 25 512 q 25 574 69 618 q 113 662 175 662 l 201 662 q 263 662 307 618 q 351 574 351 512 l 351 409 l 251 409 q 251 415 252 430 q 252 443 252 451 q 252 505 244 530 q 229 573 186 573 q 125 573 125 489 l 125 167 q 125 83 190 83 q 231 83 244 114 q 251 132 251 181 l 182 181 l 182 275 z"},"q":{"x_min":0,"x_max":393,"ha":393,"o":"m 359 -184 l 255 -183 l 256 22 q 235 -6 180 -6 q 118 -6 74 38 q 30 82 30 144 l 30 326 q 30 396 79 437 q 125 476 196 476 q 212 476 233 464 q 254 451 262 437 l 262 466 l 359 465 z m 258 174 q 258 188 257 216 q 256 245 256 259 q 256 324 251 341 q 239 383 191 383 q 130 383 130 299 l 130 167 q 130 83 195 83 q 258 83 258 174 z"},"d":{"x_min":0,"x_max":392,"ha":392,"o":"m 359 650 l 358 0 l 262 0 l 262 29 q 242 -10 180 -10 q 118 -10 74 34 q 30 78 30 140 l 30 322 q 30 384 74 428 q 118 472 180 472 l 206 472 q 234 472 256 444 l 255 649 z m 255 326 q 255 383 195 383 q 130 383 130 299 l 130 167 q 130 83 191 83 q 216 83 235 100 q 254 117 254 142 z"},"1":{"x_min":0,"x_max":288,"ha":288,"o":"m 251 0 l 147 0 l 147 505 l 45 404 l 45 526 l 146 620 l 250 621 z"},"5":{"x_min":0,"x_max":366,"ha":366,"o":"m 347 140 q 347 78 303 34 q 259 -10 197 -10 l 171 -10 q 109 -10 65 34 q 21 78 21 140 l 21 194 l 121 194 q 121 138 127 121 q 139 83 182 83 q 229 83 242 130 q 248 151 248 214 q 248 303 186 303 l 25 303 l 25 619 l 342 619 l 342 534 l 116 534 l 116 388 l 186 388 q 252 388 300 348 q 347 307 347 242 z"}}}
